<?xml version="1.0" encoding="UTF-8" standalone="no"?><!DOCTYPE svg PUBLIC "-//W3C//DTD SVG 1.1//EN" "http://www.w3.org/Graphics/SVG/1.1/DTD/svg11.dtd"><svg width="100%" height="100%" viewBox="0 0 180 180" version="1.1" xmlns="http://www.w3.org/2000/svg" xmlns:xlink="http://www.w3.org/1999/xlink" xml:space="preserve" xmlns:serif="http://www.serif.com/" style="fill-rule:evenodd;clip-rule:evenodd;stroke-linejoin:round;stroke-miterlimit:2;"><g><g><path d="M53.505,71.926l0,-29.046c0,-0.536 0.06,-1.057 0.175,-1.559c-0.114,-0.462 -0.175,-0.944 -0.175,-1.441c0,-3.311 2.689,-6 6,-6l2,0c3.311,0 6,2.689 6,6c0,0.497 -0.06,0.979 -0.175,1.441c0.114,0.501 0.175,1.023 0.175,1.559l0,29.046c-2.021,-1.295 -4.424,-2.046 -7,-2.046c-2.576,0 -4.979,0.751 -7,2.046Zm14,21.908l-0,45.046c0,3.863 -3.137,7 -7,7c-3.863,0 -7,-3.137 -7,-7l0,-45.046c2.021,1.295 4.424,2.046 7,2.046c2.576,0 4.979,-0.751 7,-2.046Z" style="fill:#e09241;"/><circle cx="60.505" cy="82.88" r="11" style="fill:#e09241;"/></g><g><path d="M82.88,98.926l0,-58.046c0,-3.863 3.137,-7 7,-7c3.863,0 7,3.137 7,7l0,58.046c-2.021,-1.295 -4.424,-2.046 -7,-2.046c-2.576,-0 -4.979,0.751 -7,2.046Zm14,21.908l-0,16.046c0,3.863 -3.137,7 -7,7c-3.863,0 -7,-3.137 -7,-7l-0,-16.046c2.021,1.295 4.424,2.046 7,2.046c2.576,0 4.979,-0.751 7,-2.046Z" style="fill:#e09241;"/><path d="M96.88,135.32l0,9.12c0,0.795 -0.645,1.44 -1.44,1.44l-11.12,0c-0.795,0 -1.44,-0.645 -1.44,-1.44l0,-9.12c0,-0.795 0.645,-1.44 1.44,-1.44l11.12,0c0.795,0 1.44,0.645 1.44,1.44Z" style="fill:#e09241;"/><circle cx="89.88" cy="109.88" r="11" style="fill:#e09241;"/></g><g><path d="M112.255,53.926l0,-11.046c0,-0.536 0.06,-1.057 0.175,-1.559c-0.114,-0.462 -0.175,-0.944 -0.175,-1.441c0,-3.311 2.689,-6 6,-6l2,0c3.311,0 6,2.689 6,6c0,0.497 -0.06,0.979 -0.175,1.441c0.114,0.501 0.175,1.023 0.175,1.559l-0,11.046c-2.021,-1.295 -4.424,-2.046 -7,-2.046c-2.576,0 -4.979,0.751 -7,2.046Zm14,21.908l0,63.046c0,3.863 -3.137,7 -7,7c-3.863,0 -7,-3.137 -7,-7l0,-63.046c2.021,1.295 4.424,2.046 7,2.046c2.576,0 4.979,-0.751 7,-2.046Z" style="fill:#e09241;"/><circle cx="119.255" cy="64.88" r="11" style="fill:#e09241;"/></g></g><path d="M89.88,0c49.606,0 89.88,40.274 89.88,89.88c0,49.606 -40.274,89.88 -89.88,89.88c-49.606,0 -89.88,-40.274 -89.88,-89.88c0,-49.606 40.274,-89.88 89.88,-89.88Zm0,12.057c42.952,0 77.823,34.871 77.823,77.823c0,42.952 -34.871,77.823 -77.823,77.823c-42.952,0 -77.823,-34.871 -77.823,-77.823c0,-42.952 34.871,-77.823 77.823,-77.823Z" style="fill:#e09241;"/></svg>